# xmcd
#
# Track frame offsets: 
#        150
#        20031
#        37729
#        52147
#        67481
#        80592
#        105086
#        121029
#        146098
#        158972
#        171833
#        194359
#        210331
#        229945
#        248896
#        279105
#
# Disc length: 4330 seconds
#
# Revision: 0
# Processed by: cddbd v1.5.2PL0 Copyright (c) Steve Scherf et al.
# Submitted via: ExactAudioCopy v0.95b4
#
DISCID=dd10e810
DTITLE=Boyz II Men - Motown Hitsville USA
DYEAR=2007
DGENRE=Gospel
TTITLE0=Just My Imagination
TTITLE1=It's The Same Old Song/Reach Out I'll Be There
TTITLE2=Mercy Mercy Me
TTITLE3=The Tracks Of My Tears
TTITLE4=Money
TTITLE5=Easy
TTITLE6=Was Made To Love Her
TTITLE7=All This Love
TTITLE8=Ribbon In The Sky
TTITLE9=Ain't Nothing Like The Real Thing
TTITLE10=There'll Never Be
TTITLE11=Got To Be There
TTITLE12=War
TTITLE13=End Of The Road
TTITLE14=Just My Imagination (Acoustic)
TTITLE15=It's The Same Old Song/Reach Out I'll Be There
EXTD=
EXTT0=
EXTT1=
EXTT2=
EXTT3=
EXTT4=
EXTT5=
EXTT6=
EXTT7=
EXTT8=
EXTT9=
EXTT10=
EXTT11=
EXTT12=
EXTT13=
EXTT14=
EXTT15=
PLAYORDER=
